PathFileType	4	(X/Y/Z)	/Users/niels/Desktop/University/Third Semester/Perception and Action/Exam/Gymnastics Motion Tracking/Code for Gym Tracking/Analyzed Data/Webcam_Backflip/id8_2_pure_Sports2D/id8_2_pure_Sports2D_px_person00.trc
DataRate	CameraRate	NumFrames	NumMarkers	Units	OrigDataRate	OrigDataStartFrame	OrigNumFrames
29.8125	29.8125	7	22	m	29.8125	40	160
Frame#	Time	Hip			RHip			RKnee			RAnkle			RBigToe			RSmallToe			RHeel			LHip			LKnee			LAnkle			LBigToe			LSmallToe			LHeel			Neck			Head			Nose			RShoulder			RElbow			RWrist			LShoulder			LElbow			LWrist		
		X1	Y1	Z1	X2	Y2	Z2	X3	Y3	Z3	X4	Y4	Z4	X5	Y5	Z5	X6	Y6	Z6	X7	Y7	Z7	X8	Y8	Z8	X9	Y9	Z9	X10	Y10	Z10	X11	Y11	Z11	X12	Y12	Z12	X13	Y13	Z13	X14	Y14	Z14	X15	Y15	Z15	X16	Y16	Z16	X17	Y17	Z17	X18	Y18	Z18	X19	Y19	Z19	X20	Y20	Z20	X21	Y21	Z21	X22	Y22	Z22
40	1.341719077568134	0.9182666930868099	-0.3206006058805724	0.0	0.9116369317802446	-0.32134858254597903	0.0	0.8695962861771752	-0.41317894890217266	0.0	0.8257878098535952	-0.36418136976792204	0.0	0.806339917730246	-0.3810622551531606	0.0	0.8033782720866615	-0.37634858845858066	0.0	0.8211896717228938	-0.350135132125127	0.0	0.9238214827897999	-0.3191579565883285	0.0	0.8789131816086369	-0.40627426085521723	0.0	0.8332212451981021	-0.3612436464635186	0.0	0.8518858376429377	-0.38269464005773746	0.0	0.8178895339725307	-0.37916148570786634	0.0	0.8313796523664085	-0.3472171799306085	0.0	0.9794206543204041	-0.4188457809651383	0.0	1.0171986318949722	-0.4566770876923386	0.0	0.9888646361387617	-0.45754382672375987	0.0	0.9627515594864113	-0.40671641025822947	0.0	0.9098916050507212	-0.39570280373927974	0.0	0.8907121269966073	-0.40997462837835125	0.0	0.9806556015747944	-0.4067445148750265	0.0	0.9359222743491556	-0.39723311866844074	0.0	0.9174854289697554	-0.4063099468056301	0.0
41	1.3752620545073373	0.9028703069147243	-0.3388509561036021	0.0	0.8965109523079187	-0.33951470114523136	0.0	0.874524997055761	-0.4450606676636485	0.0	0.8132583282888222	-0.42753067776517617	0.0	0.8020384877062585	-0.45684055717661903	0.0	0.7968126173085296	-0.45160684815390906	0.0	0.8047798592825025	-0.41570431282596465	0.0	0.9082735443130143	-0.3374860356350012	0.0	0.8820817983679847	-0.4375730476609521	0.0	0.8199515232560439	-0.42286055111544435	0.0	0.8296418235630031	-0.44979273375553336	0.0	0.809229619355465	-0.44510680308162975	0.0	0.8133498730812365	-0.41184988181737736	0.0	0.9912610888173733	-0.4146317101287506	0.0	1.0404935588562467	-0.4417039142437152	0.0	1.0106150177758255	-0.4495529392778636	0.0	0.9734493664780062	-0.40666233330202856	0.0	0.9218375740730156	-0.41607200408286793	0.0	0.9075067448024214	-0.4418022424188318	0.0	0.9889368097123991	-0.40273047723454874	0.0	0.9431522305111888	-0.4128151709349346	0.0	0.9283753651987762	-0.43401348115851013	0.0
42	1.4088050314465406	0.889742390387483	-0.36589029079550006	0.0	0.8842606078439461	-0.3662308770916675	0.0	0.8786432747018643	-0.4779486864719304	0.0	0.8125335360679871	-0.49640123774999106	0.0	0.8134067234969975	-0.5331867162506582	0.0	0.806120710841699	-0.5287046471680935	0.0	0.8010756893701917	-0.48897115989546236	0.0	0.8945140606878015	-0.36478188814574936	0.0	0.8840971506067954	-0.47125051971147686	0.0	0.8176667868687183	-0.49002749321215533	0.0	0.826234270724266	-0.521090454968588	0.0	0.8154640881910625	-0.5152412807316445	0.0	0.806654436272372	-0.4839409554936303	0.0	0.9965937678959905	-0.4112902867038979	0.0	1.0538002109947133	-0.426506113492199	0.0	1.0240883017322202	-0.4401701264055516	0.0	0.9785435789218719	-0.407323498598318	0.0	0.9369985945541252	-0.43458537424269483	0.0	0.9297281256795009	-0.4700318781070049	0.0	0.9911114093839156	-0.40032854508556803	0.0	0.9522493088593795	-0.42738907125998116	0.0	0.9454143195833562	-0.45735504645639075	0.0
43	1.442348008385744	0.8798384916513241	-0.400746335790421	0.0	0.8756460755363494	-0.40069666502178386	0.0	0.8812886173006248	-0.5134598012785897	0.0	0.8211497078522515	-0.5653008848334967	0.0	0.8343092424005528	-0.6040388851992202	0.0	0.8254746270972687	-0.6011470005969642	0.0	0.8079093765215902	-0.5635361926544231	0.0	0.883687279172648	-0.3998384730206249	0.0	0.8842964384092443	-0.5082809253486331	0.0	0.8243153372427339	-0.5579040036038186	0.0	0.8380507302777546	-0.5907204024831323	0.0	0.8318607690505432	-0.5844871876428683	0.0	0.8100531800896491	-0.5575688018074214	0.0	0.9953325360654949	-0.4111111098350868	0.0	1.0571269806347028	-0.41408822166541737	0.0	1.0288572357292776	-0.4324266083878526	0.0	0.9777327079992288	-0.41072444141913517	0.0	0.9534722484345218	-0.4501130742563076	0.0	0.9555866566433799	-0.4912354543636761	0.0	0.9876062118410998	-0.40187708775511677	0.0	0.9630980475083533	-0.44001985284425166	0.0	0.967454538489072	-0.4733578722205041	0.0
44	1.4758909853249473	0.8736482603435209	-0.44200856776092456	0.0	0.8708569310287724	-0.4416031945264627	0.0	0.8830786570089907	-0.5525549840051481	0.0	0.8347973073988612	-0.6300866683970757	0.0	0.857146685138765	-0.6665860448825687	0.0	0.8474733571177141	-0.6655871248418417	0.0	0.8208544730677435	-0.633979573371927	0.0	0.8765293995792327	-0.44101245659536087	0.0	0.8837678205169914	-0.5489255049095113	0.0	0.8362022067130894	-0.6225560983008777	0.0	0.8571032451833851	-0.6546525427132532	0.0	0.8518834258410083	-0.6488332494100347	0.0	0.8202780080294065	-0.6276234022998013	0.0	0.9880141385569778	-0.4160673647670961	0.0	1.0508424957713594	-0.4064488706526947	0.0	1.0252735000348203	-0.4286744776130323	0.0	0.9713656234428807	-0.418736568276094	0.0	0.9683717097095847	-0.46210716928408657	0.0	0.9819129738839104	-0.5025797620455069	0.0	0.9792451135853496	-0.40926479728835224	0.0	0.9736975967256603	-0.45014192968144634	0.0	0.990620073248508	-0.48009295185111134	0.0
45	1.5094339622641506	0.8710942279493592	-0.4876493628016024	0.0	0.8695607369499494	-0.4869850475757757	0.0	0.885038314479398	-0.5948378014769061	0.0	0.8488378672869984	-0.6883219298134263	0.0	0.8758138611411616	-0.7204992344120453	0.0	0.866033635029506	-0.721299969053087	0.0	0.834943570128813	-0.696772385779685	0.0	0.8731636612465843	-0.4862663207813043	0.0	0.8840775131671609	-0.5924038847454983	0.0	0.8491118841636467	-0.6812981208259445	0.0	0.8754558351362767	-0.7109512529340997	0.0	0.8695645090428973	-0.7060469389199872	0.0	0.8329639347000167	-0.6905235315518574	0.0	0.9756514303972872	-0.4275071819996984	0.0	1.03568239592833	-0.40498196647594376	0.0	1.0143145016473212	-0.4305942574398239	0.0	0.9604664522337321	-0.4326868779497957	0.0	0.9786836270729573	-0.4707876976097631	0.0	1.0041272788715903	-0.5028279725374462	0.0	0.9670504880004908	-0.4235173793836247	0.0	0.9809311726312379	-0.45792869339193604	0.0	1.0092805078831955	-0.47784824394327946	0.0
46	1.542976939203354	0.8715339034652395	-0.53478398572119	0.0	0.8709429235489254	-0.534006978426398	0.0	0.8877609967946956	-0.6383594171490186	0.0	0.8597648150087935	-0.7386562843496436	0.0	0.8874211132650254	-0.766345101492665	0.0	0.8780555765850964	-0.7686474763849369	0.0	0.8463951238481697	-0.7500645979444494	0.0	0.8730297190240428	-0.532900123104374	0.0	0.8859779598104576	-0.6366908769756737	0.0	0.8595840921171682	-0.7324501026138456	0.0	0.8882014540404837	-0.7590893682410751	0.0	0.8813976163629258	-0.7553014810970707	0.0	0.8441512931580042	-0.7442188496437341	0.0	0.9598412096661083	-0.4456216869680166	0.0	1.0132974375808967	-0.41045950523200764	0.0	0.9977447720008946	-0.4389971726571752	0.0	0.9467182151014971	-0.452691927772837	0.0	0.9821447111266852	-0.47694287909743943	0.0	1.0172936498787857	-0.49331292023712314	0.0	0.9523153279453958	-0.4442992449884119	0.0	0.9820716383686823	-0.46438866402056994	0.0	1.0182764268239501	-0.4693613727175142	0.0
